<?xml version="1.0" encoding="utf-8"?>
<!-- Generator: Adobe Illustrator 18.1.1, SVG Export Plug-In . SVG Version: 6.00 Build 0)  -->
<svg version="1.1" id="Layer_1" xmlns="http://www.w3.org/2000/svg" xmlns:xlink="http://www.w3.org/1999/xlink" x="0px" y="0px"
	 viewBox="0 0 40 40" enable-background="new 0 0 40 40" xml:space="preserve">
<radialGradient id="SVGID_1_" cx="20" cy="20" r="20" gradientUnits="userSpaceOnUse">
	<stop  offset="0" style="stop-color:#00FFFF"/>
	<stop  offset="1" style="stop-color:#00FFFF;stop-opacity:0"/>
</radialGradient>
<circle fill="url(#SVGID_1_)" cx="20" cy="20" r="20"/>
<polygon fill="#FFFFFF" points="19.8,11.8 21.9,3 21.9,12 25.9,3.9 23.8,12.7 29.6,5.8 25.6,13.9 32.8,8.5 27,15.4 35.3,11.8 
	28,17.2 36.9,15.6 28.6,19.1 37.6,19.7 28.7,21.2 37.4,23.8 28.4,23.2 36.2,27.7 27.6,25.1 34.1,31.3 26.3,26.8 31.3,34.3 
	24.7,28.1 27.8,36.6 22.9,29.1 23.9,38 20.9,29.5 19.8,38.5 18.8,29.5 15.7,38 16.8,29.1 11.8,36.6 14.9,28.1 8.4,34.3 13.3,26.8 
	5.5,31.3 12.1,25.1 3.5,27.7 11.3,23.2 2.3,23.8 10.9,21.2 2,19.7 11.1,19.1 2.8,15.6 11.6,17.2 4.4,11.8 12.7,15.4 6.9,8.5 
	14.1,13.9 10,5.8 15.8,12.7 13.7,3.9 17.8,12 17.8,3 "/>
</svg>
